<svg width="151" height="151" viewBox="0 0 151 151" fill="none" xmlns="http://www.w3.org/2000/svg">
<path d="M75.5 151C85.8273 151 95.5509 149.02 104.672 145.061C113.793 141.151 121.804 135.719 128.705 128.766C135.654 121.814 141.107 113.799 145.064 104.722C149.021 95.5972 151 85.8442 151 75.4638C151 65.1316 149.021 55.427 145.064 46.3501C141.107 37.2249 135.654 29.1861 128.705 22.2336C121.804 15.281 113.769 9.84935 104.6 5.93864C95.4792 1.97953 85.7549 0 75.4276 0C65.1003 0 55.3763 1.97953 46.2555 5.93864C37.1347 9.84935 29.0997 15.281 22.1506 22.2336C15.2496 29.1861 9.82057 37.2249 5.86338 46.3501C1.95446 55.427 0 65.1316 0 75.4638C0 85.8442 1.95446 95.5972 5.86338 104.722C9.82057 113.799 15.2737 121.814 22.223 128.766C29.1721 135.719 37.2071 141.151 46.3279 145.061C55.4487 149.02 65.1727 151 75.5 151ZM67.465 111.385C65.969 111.385 64.6178 111.071 63.4113 110.443C62.2048 109.768 61.0708 108.754 60.0091 107.402L42.5638 86.3996C41.8882 85.4821 41.3573 84.589 40.9712 83.7199C40.6334 82.8026 40.4645 81.8611 40.4645 80.8954C40.4645 78.8676 41.1643 77.1536 42.5638 75.7535C43.9633 74.305 45.6765 73.5808 47.7033 73.5808C48.9097 73.5808 49.9955 73.8464 50.9607 74.3774C51.9259 74.8602 52.8911 75.7052 53.8562 76.9122L67.2478 93.7144L96.4201 47.0743C98.1575 44.3223 100.305 42.9463 102.862 42.9463C104.793 42.9463 106.506 43.574 108.002 44.8293C109.546 46.0845 110.319 47.7261 110.319 49.7539C110.319 50.6713 110.125 51.5887 109.739 52.506C109.401 53.4233 108.967 54.2924 108.436 55.1132L74.6314 107.402C73.7627 108.657 72.701 109.647 71.4463 110.372C70.2398 111.047 68.9127 111.385 67.465 111.385Z" fill="#0CC291"/>
</svg>
