<svg width="83" height="83" viewBox="0 0 83 83" fill="none" xmlns="http://www.w3.org/2000/svg">
<circle cx="41.5" cy="41.5" r="41.5" fill="white" fill-opacity="0.6"/>
<path d="M39.9699 41.6662L48.131 49.8273C48.5147 50.211 48.7065 50.6992 48.7065 51.2921C48.7065 51.885 48.5147 52.3733 48.131 52.7569C47.7474 53.1406 47.2591 53.3324 46.6662 53.3324C46.0733 53.3324 45.585 53.1406 45.2014 52.7569L35.5755 43.131C35.3662 42.9218 35.2183 42.6951 35.1318 42.4509C35.0453 42.2068 35.0014 41.9452 35 41.6662C35 41.3872 35.0439 41.1256 35.1318 40.8815C35.2197 40.6373 35.3676 40.4106 35.5755 40.2014L45.2014 30.5755C45.585 30.1918 46.0733 30 46.6662 30C47.2591 30 47.7474 30.1918 48.131 30.5755C48.5147 30.9591 48.7065 31.4474 48.7065 32.0403C48.7065 32.6332 48.5147 33.1215 48.131 33.5051L39.9699 41.6662Z" fill="black"/>
</svg>
