<svg width="83" height="83" viewBox="0 0 83 83" fill="none" xmlns="http://www.w3.org/2000/svg">
<circle cx="41.5" cy="41.5" r="41.5" transform="rotate(-180 41.5 41.5)" fill="white" fill-opacity="0.6"/>
<path d="M43.0301 41.3338L34.869 33.1727C34.4853 32.789 34.2935 32.3008 34.2935 31.7079C34.2935 31.115 34.4853 30.6267 34.869 30.2431C35.2526 29.8594 35.7409 29.6676 36.3338 29.6676C36.9267 29.6676 37.415 29.8594 37.7986 30.2431L47.4245 39.869C47.6338 40.0782 47.7817 40.3049 47.8682 40.5491C47.9547 40.7932 47.9986 41.0548 48 41.3338C48 41.6128 47.9561 41.8744 47.8682 42.1185C47.7803 42.3627 47.6324 42.5894 47.4245 42.7986L37.7986 52.4245C37.415 52.8082 36.9267 53 36.3338 53C35.7409 53 35.2526 52.8082 34.869 52.4245C34.4853 52.0409 34.2935 51.5526 34.2935 50.9597C34.2935 50.3668 34.4853 49.8785 34.869 49.4949L43.0301 41.3338Z" fill="black"/>
</svg>
